<svg width="112" height="140" viewBox="0 0 112 140" fill="none" xmlns="http://www.w3.org/2000/svg">
<path fill-rule="evenodd" clip-rule="evenodd" d="M112 21V70C112 112 56 140 56 140C56 140 0 112 0 70V21L28 10.5L56 0L112 21ZM14 70V30.702L32.9157 23.6086L56 14.952L98 30.702V70C98 84.7499 87.9444 98.6959 74.7809 110.214C68.4933 115.716 62.1396 120.091 57.33 123.097C56.8707 123.384 56.4269 123.658 56 123.918C55.5731 123.658 55.1293 123.384 54.67 123.097C49.8604 120.091 43.5067 115.716 37.2191 110.214C24.0556 98.6959 14 84.7499 14 70ZM28 91L41.7066 91L56 42.046L70.2934 91H84L65.8503 31L46.1916 31L28 91Z" fill="#73B4F0"/>
</svg>
